<svg width="48" height="44" viewBox="0 0 48 44" fill="none" xmlns="http://www.w3.org/2000/svg">
<g clip-path="url(#clip0_4016_1617)">
<g clip-path="url(#clip1_4016_1617)">
<g clip-path="url(#clip2_4016_1617)">
<g filter="url(#filter0_ii_4016_1617)">
<path d="M23.8926 41.9903C23.8926 41.9903 0.58374 29.1091 0.58374 13.5442C0.58374 6.72654 6.03879 1.19971 12.7679 1.19971C17.7242 1.19971 21.9893 4.19793 23.8926 8.50186C25.7959 4.19793 30.0611 1.19971 35.0174 1.19971C41.7464 1.19971 47.2016 6.72654 47.2016 13.5442C47.2016 29.1091 23.8926 41.9903 23.8926 41.9903Z" fill="url(#paint0_radial_4016_1617)"/>
<path d="M23.8926 41.9903C23.8926 41.9903 0.58374 29.1091 0.58374 13.5442C0.58374 6.72654 6.03879 1.19971 12.7679 1.19971C17.7242 1.19971 21.9893 4.19793 23.8926 8.50186C25.7959 4.19793 30.0611 1.19971 35.0174 1.19971C41.7464 1.19971 47.2016 6.72654 47.2016 13.5442C47.2016 29.1091 23.8926 41.9903 23.8926 41.9903Z" fill="url(#paint1_radial_4016_1617)" fill-opacity="0.2"/>
<path d="M23.8926 41.9903C23.8926 41.9903 0.58374 29.1091 0.58374 13.5442C0.58374 6.72654 6.03879 1.19971 12.7679 1.19971C17.7242 1.19971 21.9893 4.19793 23.8926 8.50186C25.7959 4.19793 30.0611 1.19971 35.0174 1.19971C41.7464 1.19971 47.2016 6.72654 47.2016 13.5442C47.2016 29.1091 23.8926 41.9903 23.8926 41.9903Z" fill="url(#paint2_radial_4016_1617)" fill-opacity="0.2"/>
</g>
</g>
</g>
</g>
<defs>
<filter id="filter0_ii_4016_1617" x="-1.8157" y="-1.19974" width="51.4168" height="45.5894" filterUnits="userSpaceOnUse" color-interpolation-filters="sRGB">
<feFlood flood-opacity="0" result="BackgroundImageFix"/>
<feBlend mode="normal" in="SourceGraphic" in2="BackgroundImageFix" result="shape"/>
<feColorMatrix in="SourceAlpha" type="matrix" values="0 0 0 0 0 0 0 0 0 0 0 0 0 0 0 0 0 0 127 0" result="hardAlpha"/>
<feOffset dx="2.39944" dy="2.39944"/>
<feGaussianBlur stdDeviation="4.79889"/>
<feComposite in2="hardAlpha" operator="arithmetic" k2="-1" k3="1"/>
<feColorMatrix type="matrix" values="0 0 0 0 0 0 0 0 0 0 0 0 0 0 0 0 0 0 0.25 0"/>
<feBlend mode="normal" in2="shape" result="effect1_innerShadow_4016_1617"/>
<feColorMatrix in="SourceAlpha" type="matrix" values="0 0 0 0 0 0 0 0 0 0 0 0 0 0 0 0 0 0 127 0" result="hardAlpha"/>
<feOffset dx="-2.39944" dy="-2.39944"/>
<feGaussianBlur stdDeviation="4.79889"/>
<feComposite in2="hardAlpha" operator="arithmetic" k2="-1" k3="1"/>
<feColorMatrix type="matrix" values="0 0 0 0 0 0 0 0 0 0 0 0 0 0 0 0 0 0 0.25 0"/>
<feBlend mode="normal" in2="effect1_innerShadow_4016_1617" result="effect2_innerShadow_4016_1617"/>
</filter>
<radialGradient id="paint0_radial_4016_1617" cx="0" cy="0" r="1" gradientUnits="userSpaceOnUse" gradientTransform="translate(23.8926 13.4369) rotate(90) scale(41.8103 39.8193)">
<stop stop-color="#B593EC"/>
<stop offset="1" stop-color="#521BAC"/>
</radialGradient>
<radialGradient id="paint1_radial_4016_1617" cx="0" cy="0" r="1" gradientUnits="userSpaceOnUse" gradientTransform="translate(12.2382 13.4369) rotate(90) scale(18.3557 20.978)">
<stop stop-color="#E1CEFF"/>
<stop offset="1" stop-color="#956ED4" stop-opacity="0"/>
</radialGradient>
<radialGradient id="paint2_radial_4016_1617" cx="0" cy="0" r="1" gradientUnits="userSpaceOnUse" gradientTransform="translate(35.547 13.4369) rotate(90) scale(18.3557 20.978)">
<stop stop-color="#E1CEFF"/>
<stop offset="1" stop-color="#956ED4" stop-opacity="0"/>
</radialGradient>
<clipPath id="clip0_4016_1617">
<rect width="48" height="43.19" fill="white"/>
</clipPath>
<clipPath id="clip1_4016_1617">
<rect width="48" height="43.19" fill="white"/>
</clipPath>
<clipPath id="clip2_4016_1617">
<rect width="47.9889" height="43.19" fill="white" transform="translate(0.00561523)"/>
</clipPath>
</defs>
</svg>
