<svg width="48" height="48" viewBox="0 0 48 48" fill="none" xmlns="http://www.w3.org/2000/svg">
<g clip-path="url(#clip0_4016_1570)">
<g clip-path="url(#clip1_4016_1570)">
<path d="M10.1013 46.4663C14.5644 46.4663 18.1824 42.8483 18.1824 38.3853C18.1824 33.9222 14.5644 30.3042 10.1013 30.3042C5.63829 30.3042 2.02026 33.9222 2.02026 38.3853V46.4663L10.1013 42.4258V46.4663Z" fill="url(#paint0_radial_4016_1570)"/>
<path d="M10.1013 46.4663C14.5644 46.4663 18.1824 42.8483 18.1824 38.3853C18.1824 33.9222 14.5644 30.3042 10.1013 30.3042C5.63829 30.3042 2.02026 33.9222 2.02026 38.3853V46.4663L10.1013 42.4258V46.4663Z" fill="url(#paint1_radial_4016_1570)" fill-opacity="0.7"/>
<path d="M22.223 37.3752L11.1115 26.2637C11.1115 26.2637 8.39505 28.4803 8.08105 30.3043L18.1824 40.4056C20.0064 40.0916 22.223 37.3752 22.223 37.3752Z" fill="url(#paint2_linear_4016_1570)"/>
<path d="M22.223 37.3752L11.1115 26.2637C11.1115 26.2637 8.39505 28.4803 8.08105 30.3043L18.1824 40.4056C20.0064 40.0916 22.223 37.3752 22.223 37.3752Z" fill="url(#paint3_linear_4016_1570)"/>
<path d="M42.9696 3.01917C44.4936 2.58375 45.9025 3.99273 45.4671 5.51672L42.4256 16.1621L32.3242 6.06069L42.9696 3.01917Z" fill="url(#paint4_linear_4016_1570)"/>
<path fill-rule="evenodd" clip-rule="evenodd" d="M13.1319 23.2331L7.07104 17.1723L11.4285 12.8148C14.4595 9.78385 18.5704 8.08105 22.8569 8.08105H28.2839L13.1319 23.2331ZM25.2535 35.3547L31.3143 41.4155L34.5758 38.1541C37.0485 35.6813 38.6526 32.4732 39.1471 29.0114L40.4055 20.2027L25.2535 35.3547Z" fill="url(#paint5_linear_4016_1570)"/>
<path d="M23.7381 38.89L35.8878 26.7402C38.8587 23.7694 41.097 20.1477 42.4256 16.1619L32.3242 6.06055C28.3385 7.38914 24.7168 9.62747 21.746 12.5983L9.59619 24.7481L23.7381 38.89Z" fill="url(#paint6_radial_4016_1570)"/>
<path d="M28.2837 26.2637C31.631 26.2637 34.3445 23.5502 34.3445 20.2029C34.3445 16.8556 31.631 14.1421 28.2837 14.1421C24.9364 14.1421 22.2229 16.8556 22.2229 20.2029C22.2229 23.5502 24.9364 26.2637 28.2837 26.2637Z" fill="url(#paint7_radial_4016_1570)"/>
<path d="M28.2837 26.2637C31.631 26.2637 34.3445 23.5502 34.3445 20.2029C34.3445 16.8556 31.631 14.1421 28.2837 14.1421C24.9364 14.1421 22.2229 16.8556 22.2229 20.2029C22.2229 23.5502 24.9364 26.2637 28.2837 26.2637Z" fill="url(#paint8_linear_4016_1570)"/>
</g>
</g>
<defs>
<radialGradient id="paint0_radial_4016_1570" cx="0" cy="0" r="1" gradientUnits="userSpaceOnUse" gradientTransform="translate(8.08107 40.4055) rotate(135) scale(12.8569)">
<stop stop-color="#FFC612"/>
<stop offset="1" stop-color="#FE6277"/>
</radialGradient>
<radialGradient id="paint1_radial_4016_1570" cx="0" cy="0" r="1" gradientUnits="userSpaceOnUse" gradientTransform="translate(7.07094 41.4157) rotate(135) scale(9.99983)">
<stop offset="0.481509" stop-color="#FFC612" stop-opacity="0"/>
<stop offset="1" stop-color="#CB1B1B"/>
</radialGradient>
<linearGradient id="paint2_linear_4016_1570" x1="7.65744" y1="27.2739" x2="21.2128" y2="40.8292" gradientUnits="userSpaceOnUse">
<stop stop-color="#501AA7"/>
<stop offset="0.25" stop-color="#612EB2"/>
<stop offset="0.5" stop-color="#8655D6"/>
<stop offset="0.75" stop-color="#612EB2"/>
<stop offset="1" stop-color="#501AA7"/>
</linearGradient>
<linearGradient id="paint3_linear_4016_1570" x1="17.1723" y1="31.3144" x2="14.1419" y2="34.3448" gradientUnits="userSpaceOnUse">
<stop stop-color="#33185D"/>
<stop offset="1" stop-color="#33185D" stop-opacity="0"/>
</linearGradient>
<linearGradient id="paint4_linear_4016_1570" x1="33.0737" y1="5.05056" x2="43.4357" y2="15.4126" gradientUnits="userSpaceOnUse">
<stop stop-color="#33185D"/>
<stop offset="0.2" stop-color="#612EB2"/>
<stop offset="0.457099" stop-color="#8655D6"/>
<stop offset="0.539842" stop-color="#8655D6"/>
<stop offset="0.8" stop-color="#612EB2"/>
<stop offset="1" stop-color="#33185D"/>
</linearGradient>
<linearGradient id="paint5_linear_4016_1570" x1="8.14635" y1="14.5329" x2="33.9537" y2="40.3402" gradientUnits="userSpaceOnUse">
<stop stop-color="#8655D6"/>
<stop offset="0.142857" stop-color="#612EB2"/>
<stop offset="0.285714" stop-color="#33185D"/>
<stop offset="0.428571"/>
<stop offset="0.571429"/>
<stop offset="0.714286" stop-color="#33185D"/>
<stop offset="0.857143" stop-color="#612EB2"/>
<stop offset="1" stop-color="#8655D6"/>
</linearGradient>
<radialGradient id="paint6_radial_4016_1570" cx="0" cy="0" r="1" gradientUnits="userSpaceOnUse" gradientTransform="translate(25.2533 23.2329) rotate(45) scale(11.4284 57.9448)">
<stop offset="0.725228" stop-color="white"/>
<stop offset="0.909575" stop-color="#6E77C8"/>
</radialGradient>
<radialGradient id="paint7_radial_4016_1570" cx="0" cy="0" r="1" gradientUnits="userSpaceOnUse" gradientTransform="translate(28.2837 20.2029) rotate(90) scale(6.06081)">
<stop stop-color="#501AA7"/>
<stop offset="0.333333" stop-color="#612EB2"/>
<stop offset="0.666667" stop-color="#AC80F3"/>
<stop offset="1" stop-color="#501AA7"/>
</radialGradient>
<linearGradient id="paint8_linear_4016_1570" x1="32.3242" y1="16.1623" x2="24.2431" y2="24.2434" gradientUnits="userSpaceOnUse">
<stop stop-color="#33185D"/>
<stop offset="1" stop-color="#33185D" stop-opacity="0"/>
</linearGradient>
<clipPath id="clip0_4016_1570">
<rect width="48" height="48" fill="white"/>
</clipPath>
<clipPath id="clip1_4016_1570">
<rect width="48" height="48" fill="white"/>
</clipPath>
</defs>
</svg>
