<svg width="48" height="48" viewBox="0 0 48 48" fill="none" xmlns="http://www.w3.org/2000/svg">
<g clip-path="url(#clip0_4016_1628)">
<g clip-path="url(#clip1_4016_1628)">
<mask id="mask0_4016_1628" style="mask-type:luminance" maskUnits="userSpaceOnUse" x="0" y="0" width="48" height="48">
<path d="M48 0H0V48H48V0Z" fill="white"/>
</mask>
<g mask="url(#mask0_4016_1628)">
<path d="M25.9998 26L39.9998 40" stroke="url(#paint0_linear_4016_1628)" stroke-width="4"/>
<path d="M25.9998 26L39.9998 40" stroke="url(#paint1_linear_4016_1628)" stroke-width="4"/>
<path d="M36.9998 37L43.9997 44" stroke="url(#paint2_linear_4016_1628)" stroke-width="8.00002" stroke-linecap="round"/>
<g filter="url(#filter0_d_4016_1628)">
<path d="M17.9997 34C26.8363 34 33.9997 26.8365 33.9997 18C33.9997 9.16344 26.8363 2 17.9997 2C9.16319 2 1.99976 9.16344 1.99976 18C1.99976 26.8365 9.16319 34 17.9997 34Z" fill="url(#paint3_linear_4016_1628)"/>
</g>
<path d="M17.9995 28C24.6269 28 29.9995 22.6274 29.9995 16C29.9995 9.37258 24.6269 4 17.9995 4C11.3721 4 5.99951 9.37258 5.99951 16C5.99951 22.6274 11.3721 28 17.9995 28Z" fill="url(#paint4_radial_4016_1628)"/>
<g filter="url(#filter1_d_4016_1628)">
<path d="M18 35C27.3889 35 35 27.3889 35 18C35 8.61117 27.3889 1 18 1C8.61117 1 1 8.61117 1 18C1 27.3889 8.61117 35 18 35Z" stroke="url(#paint5_radial_4016_1628)" stroke-width="2"/>
</g>
<path d="M17.9998 33.5C26.5602 33.5 33.4998 26.5604 33.4998 18C33.4998 9.43959 26.5602 2.5 17.9998 2.5C9.43935 2.5 2.49976 9.43959 2.49976 18C2.49976 26.5604 9.43935 33.5 17.9998 33.5Z" stroke="url(#paint6_radial_4016_1628)" stroke-width="0.999998"/>
</g>
</g>
</g>
<defs>
<filter id="filter0_d_4016_1628" x="-0.000240803" y="3.33786e-06" width="36" height="36" filterUnits="userSpaceOnUse" color-interpolation-filters="sRGB">
<feFlood flood-opacity="0" result="BackgroundImageFix"/>
<feColorMatrix in="SourceAlpha" type="matrix" values="0 0 0 0 0 0 0 0 0 0 0 0 0 0 0 0 0 0 127 0" result="hardAlpha"/>
<feOffset/>
<feGaussianBlur stdDeviation="0.999998"/>
<feComposite in2="hardAlpha" operator="out"/>
<feColorMatrix type="matrix" values="0 0 0 0 1 0 0 0 0 1 0 0 0 0 1 0 0 0 1 0"/>
<feBlend mode="normal" in2="BackgroundImageFix" result="effect1_dropShadow_4016_1628"/>
<feBlend mode="normal" in="SourceGraphic" in2="effect1_dropShadow_4016_1628" result="shape"/>
</filter>
<filter id="filter1_d_4016_1628" x="-0.5" y="-0.5" width="37" height="37" filterUnits="userSpaceOnUse" color-interpolation-filters="sRGB">
<feFlood flood-opacity="0" result="BackgroundImageFix"/>
<feColorMatrix in="SourceAlpha" type="matrix" values="0 0 0 0 0 0 0 0 0 0 0 0 0 0 0 0 0 0 127 0" result="hardAlpha"/>
<feOffset/>
<feGaussianBlur stdDeviation="0.25"/>
<feComposite in2="hardAlpha" operator="out"/>
<feColorMatrix type="matrix" values="0 0 0 0 0 0 0 0 0 0 0 0 0 0 0 0 0 0 0.25 0"/>
<feBlend mode="normal" in2="BackgroundImageFix" result="effect1_dropShadow_4016_1628"/>
<feBlend mode="normal" in="SourceGraphic" in2="effect1_dropShadow_4016_1628" result="shape"/>
</filter>
<linearGradient id="paint0_linear_4016_1628" x1="30.9998" y1="35" x2="34.9998" y2="31" gradientUnits="userSpaceOnUse">
<stop stop-color="#2B2B2B"/>
<stop offset="0.333333" stop-color="#8B8B8B"/>
<stop offset="0.666667" stop-color="#C4C4C4"/>
<stop offset="1" stop-color="#2B2B2B"/>
</linearGradient>
<linearGradient id="paint1_linear_4016_1628" x1="29.9998" y1="30" x2="32.9998" y2="33" gradientUnits="userSpaceOnUse">
<stop stop-color="#2B2B2B"/>
<stop offset="1" stop-color="#181818" stop-opacity="0"/>
</linearGradient>
<linearGradient id="paint2_linear_4016_1628" x1="42.3998" y1="37.3143" x2="37.5998" y2="42.1143" gradientUnits="userSpaceOnUse">
<stop stop-color="#956ED4"/>
<stop offset="0.326886" stop-color="#CAAAFF"/>
<stop offset="0.742578" stop-color="#956ED4"/>
<stop offset="1" stop-color="#612EB2"/>
</linearGradient>
<linearGradient id="paint3_linear_4016_1628" x1="17.9997" y1="-6.00002" x2="17.9997" y2="34" gradientUnits="userSpaceOnUse">
<stop stop-color="#96B7C9"/>
<stop offset="1" stop-color="#D2E1EA"/>
</linearGradient>
<radialGradient id="paint4_radial_4016_1628" cx="0" cy="0" r="1" gradientUnits="userSpaceOnUse" gradientTransform="translate(17.9995 7.99998) rotate(90) scale(20)">
<stop offset="0.298869" stop-color="#EFFAFE"/>
<stop offset="1" stop-color="#EFFAFE" stop-opacity="0"/>
</radialGradient>
<radialGradient id="paint5_radial_4016_1628" cx="0" cy="0" r="1" gradientUnits="userSpaceOnUse" gradientTransform="translate(5.00003 7) rotate(45) scale(33.9411)">
<stop stop-color="#D9D9D9"/>
<stop offset="0.43869" stop-color="#F4F4F4"/>
<stop offset="0.698691" stop-color="#A8AEBC"/>
<stop offset="1" stop-color="#6B6B6B"/>
</radialGradient>
<radialGradient id="paint6_radial_4016_1628" cx="0" cy="0" r="1" gradientUnits="userSpaceOnUse" gradientTransform="translate(6.4442 8.22222) rotate(45) scale(30.1699)">
<stop stop-color="#B0B0B0"/>
<stop offset="0.43869" stop-color="#CCCCCC"/>
<stop offset="0.698691" stop-color="#92969E"/>
<stop offset="1" stop-color="#3D3D3D"/>
</radialGradient>
<clipPath id="clip0_4016_1628">
<rect width="48" height="48" fill="white"/>
</clipPath>
<clipPath id="clip1_4016_1628">
<rect width="48" height="48" fill="white"/>
</clipPath>
</defs>
</svg>
