<svg width="48" height="48" viewBox="0 0 48 48" fill="none" xmlns="http://www.w3.org/2000/svg">
<g clip-path="url(#clip0_4016_1646)">
<g clip-path="url(#clip1_4016_1646)">
<path d="M11.7793 19.1796C10.6822 24.475 8.02919 30.1813 3.16617 31.7204C2.9508 31.7885 2.9508 32.212 3.16617 32.2801C8.02919 33.8191 10.6822 39.5255 11.7793 44.8209C11.8252 45.0421 12.1742 45.0421 12.22 44.8209C13.3172 39.5255 15.9702 33.8191 20.8332 32.2801C21.0486 32.212 21.0486 31.7885 20.8332 31.7204C15.9702 30.1813 13.3172 24.475 12.22 19.1796C12.1742 18.9584 11.8252 18.9584 11.7793 19.1796Z" fill="url(#paint0_radial_4016_1646)"/>
<path d="M37.7734 15.265C36.8781 19.6731 34.8057 24.3431 31.0806 25.7082C30.8709 25.785 30.8709 26.2151 31.0806 26.2919C34.8057 27.657 36.8781 32.327 37.7734 36.7351C37.8189 36.9589 38.1812 36.9589 38.2267 36.7351C39.122 32.327 41.1944 27.657 44.9196 26.2919C45.1292 26.2151 45.1292 25.785 44.9196 25.7082C41.1944 24.3431 39.122 19.6731 38.2267 15.265C38.1812 15.0412 37.8189 15.0412 37.7734 15.265Z" fill="url(#paint1_radial_4016_1646)"/>
<path d="M22.769 1.32684C21.9749 5.2847 20.1902 9.42917 17.0254 10.7013C16.82 10.7838 16.82 11.2164 17.0254 11.299C20.1902 12.571 21.9749 16.7155 22.769 20.6734C22.8142 20.8989 23.1863 20.8989 23.2316 20.6734C24.0256 16.7155 25.8104 12.571 28.9752 11.299C29.1806 11.2164 29.1806 10.7838 28.9752 10.7013C25.8104 9.42917 24.0256 5.2847 23.2316 1.32684C23.1863 1.10134 22.8142 1.10134 22.769 1.32684Z" fill="url(#paint2_radial_4016_1646)"/>
</g>
</g>
<defs>
<radialGradient id="paint0_radial_4016_1646" cx="0" cy="0" r="1" gradientUnits="userSpaceOnUse" gradientTransform="translate(11.9997 32.0003) rotate(90) scale(15.9091 11.3636)">
<stop stop-color="#FFD758"/>
<stop offset="0.5" stop-color="#FFC612"/>
<stop offset="1" stop-color="#FFA012"/>
</radialGradient>
<radialGradient id="paint1_radial_4016_1646" cx="0" cy="0" r="1" gradientUnits="userSpaceOnUse" gradientTransform="translate(38.0001 26) rotate(90) scale(13.6364 9.09091)">
<stop stop-color="#FFD758"/>
<stop offset="0.5" stop-color="#FFC612"/>
<stop offset="1" stop-color="#FFA012"/>
</radialGradient>
<radialGradient id="paint2_radial_4016_1646" cx="0" cy="0" r="1" gradientUnits="userSpaceOnUse" gradientTransform="translate(23.0003 11.0001) rotate(90) scale(12.5 7.95456)">
<stop stop-color="#FFD758"/>
<stop offset="0.5" stop-color="#FFC612"/>
<stop offset="1" stop-color="#FFA012"/>
</radialGradient>
<clipPath id="clip0_4016_1646">
<rect width="48" height="48" fill="white"/>
</clipPath>
<clipPath id="clip1_4016_1646">
<rect width="48" height="48" fill="white"/>
</clipPath>
</defs>
</svg>
